<svg id="visual" viewBox="0 0 900 600" width="900" height="600" xmlns="http://www.w3.org/2000/svg" xmlns:xlink="http://www.w3.org/1999/xlink" version="1.1"><path d="M0 181L13.7 181C27.3 181 54.7 181 82 185C109.3 189 136.7 197 163.8 195C191 193 218 181 245.2 163C272.3 145 299.7 121 327 128C354.3 135 381.7 173 409 186C436.3 199 463.7 187 491 178C518.3 169 545.7 163 573 164C600.3 165 627.7 173 654.8 161C682 149 709 117 736.2 125C763.3 133 790.7 181 818 188C845.3 195 872.7 161 886.3 144L900 127L900 0L886.3 0C872.7 0 845.3 0 818 0C790.7 0 763.3 0 736.2 0C709 0 682 0 654.8 0C627.7 0 600.3 0 573 0C545.7 0 518.3 0 491 0C463.7 0 436.3 0 409 0C381.7 0 354.3 0 327 0C299.7 0 272.3 0 245.2 0C218 0 191 0 163.8 0C136.7 0 109.3 0 82 0C54.7 0 27.3 0 13.7 0L0 0Z" fill="#6198ff"></path><path d="M0 229L13.7 232C27.3 235 54.7 241 82 251C109.3 261 136.7 275 163.8 270C191 265 218 241 245.2 226C272.3 211 299.7 205 327 210C354.3 215 381.7 231 409 243C436.3 255 463.7 263 491 261C518.3 259 545.7 247 573 246C600.3 245 627.7 255 654.8 240C682 225 709 185 736.2 185C763.3 185 790.7 225 818 229C845.3 233 872.7 201 886.3 185L900 169L900 125L886.3 142C872.7 159 845.3 193 818 186C790.7 179 763.3 131 736.2 123C709 115 682 147 654.8 159C627.7 171 600.3 163 573 162C545.7 161 518.3 167 491 176C463.7 185 436.3 197 409 184C381.7 171 354.3 133 327 126C299.7 119 272.3 143 245.2 161C218 179 191 191 163.8 193C136.7 195 109.3 187 82 183C54.7 179 27.3 179 13.7 179L0 179Z" fill="#3c80ff"></path><path d="M0 385L13.7 380C27.3 375 54.7 365 82 372C109.3 379 136.7 403 163.8 414C191 425 218 423 245.2 420C272.3 417 299.7 413 327 414C354.3 415 381.7 421 409 425C436.3 429 463.7 431 491 426C518.3 421 545.7 409 573 394C600.3 379 627.7 361 654.8 359C682 357 709 371 736.2 388C763.3 405 790.7 425 818 425C845.3 425 872.7 405 886.3 395L900 385L900 167L886.3 183C872.7 199 845.3 231 818 227C790.7 223 763.3 183 736.2 183C709 183 682 223 654.8 238C627.7 253 600.3 243 573 244C545.7 245 518.3 257 491 259C463.7 261 436.3 253 409 241C381.7 229 354.3 213 327 208C299.7 203 272.3 209 245.2 224C218 239 191 263 163.8 268C136.7 273 109.3 259 82 249C54.7 239 27.3 233 13.7 230L0 227Z" fill="#0066ff"></path><path d="M0 535L13.7 531C27.3 527 54.7 519 82 510C109.3 501 136.7 491 163.8 485C191 479 218 477 245.2 484C272.3 491 299.7 507 327 508C354.3 509 381.7 495 409 501C436.3 507 463.7 533 491 545C518.3 557 545.7 555 573 542C600.3 529 627.7 505 654.8 495C682 485 709 489 736.2 496C763.3 503 790.7 513 818 522C845.3 531 872.7 539 886.3 543L900 547L900 383L886.3 393C872.7 403 845.3 423 818 423C790.7 423 763.3 403 736.2 386C709 369 682 355 654.8 357C627.7 359 600.3 377 573 392C545.7 407 518.3 419 491 424C463.7 429 436.3 427 409 423C381.7 419 354.3 413 327 412C299.7 411 272.3 415 245.2 418C218 421 191 423 163.8 412C136.7 401 109.3 377 82 370C54.7 363 27.3 373 13.7 378L0 383Z" fill="#0059dd"></path><path d="M0 601L13.7 601C27.3 601 54.7 601 82 601C109.3 601 136.7 601 163.8 601C191 601 218 601 245.2 601C272.3 601 299.7 601 327 601C354.3 601 381.7 601 409 601C436.3 601 463.7 601 491 601C518.3 601 545.7 601 573 601C600.3 601 627.7 601 654.8 601C682 601 709 601 736.2 601C763.3 601 790.7 601 818 601C845.3 601 872.7 601 886.3 601L900 601L900 545L886.3 541C872.7 537 845.3 529 818 520C790.7 511 763.3 501 736.2 494C709 487 682 483 654.8 493C627.7 503 600.3 527 573 540C545.7 553 518.3 555 491 543C463.7 531 436.3 505 409 499C381.7 493 354.3 507 327 506C299.7 505 272.3 489 245.2 482C218 475 191 477 163.8 483C136.7 489 109.3 499 82 508C54.7 517 27.3 525 13.7 529L0 533Z" fill="#004cbb"></path></svg>